<svg width="24" height="24" viewBox="0 0 24 24" fill="none" xmlns="http://www.w3.org/2000/svg">
<path d="M9.56252 13.1249C9.56252 13.3104 9.50753 13.4916 9.40452 13.6458C9.3015 13.8 9.15509 13.9201 8.98378 13.9911C8.81248 14.062 8.62398 14.0806 8.44212 14.0444C8.26026 14.0083 8.09321 13.919 7.9621 13.7879C7.83099 13.6567 7.7417 13.4897 7.70553 13.3078C7.66936 13.126 7.68792 12.9375 7.75888 12.7662C7.82984 12.5949 7.95 12.4485 8.10417 12.3454C8.25834 12.2424 8.4396 12.1874 8.62502 12.1874C8.87366 12.1874 9.11211 12.2862 9.28793 12.462C9.46374 12.6378 9.56252 12.8763 9.56252 13.1249ZM15.375 12.1874C15.1896 12.1874 15.0083 12.2424 14.8542 12.3454C14.7 12.4485 14.5798 12.5949 14.5089 12.7662C14.4379 12.9375 14.4194 13.126 14.4555 13.3078C14.4917 13.4897 14.581 13.6567 14.7121 13.7879C14.8432 13.919 15.0103 14.0083 15.1921 14.0444C15.374 14.0806 15.5625 14.062 15.7338 13.9911C15.9051 13.9201 16.0515 13.8 16.1545 13.6458C16.2575 13.4916 16.3125 13.3104 16.3125 13.1249C16.3125 12.8763 16.2137 12.6378 16.0379 12.462C15.8621 12.2862 15.6237 12.1874 15.375 12.1874ZM22.2788 17.9137L15.9975 20.699C15.8269 20.7736 15.6428 20.8123 15.4566 20.8124C15.1865 20.8127 14.9227 20.7305 14.7007 20.5766C14.4787 20.4228 14.309 20.2048 14.2144 19.9518L13.4063 17.759C12.9441 17.7937 12.4763 17.8134 12 17.8134C11.5238 17.8134 11.0569 17.7937 10.5938 17.759L9.7847 19.9518C9.69014 20.2047 9.52059 20.4226 9.29875 20.5764C9.07692 20.7302 8.81339 20.8125 8.54345 20.8124C8.35726 20.8123 8.1731 20.7736 8.00252 20.699L1.72127 17.9137C1.43822 17.7888 1.2084 17.5679 1.07238 17.29C0.936356 17.0121 0.902868 16.6951 0.977828 16.3949L3.75002 5.48432C3.81357 5.23629 3.94793 5.01213 4.13671 4.83917C4.32548 4.6662 4.56052 4.55192 4.81314 4.51025L8.19377 3.95525C8.52013 3.90216 8.85457 3.97251 9.13188 4.15259C9.4092 4.33268 9.60951 4.60958 9.69377 4.92932L10.0397 6.2915C11.3429 6.15275 12.6571 6.15275 13.9603 6.2915L14.3063 4.92932C14.3905 4.60958 14.5908 4.33268 14.8681 4.15259C15.1455 3.97251 15.4799 3.90216 15.8063 3.95525L19.1869 4.51025C19.4395 4.55192 19.6745 4.6662 19.8633 4.83917C20.0521 5.01213 20.1865 5.23629 20.25 5.48432L23.0185 16.3949C23.0937 16.6947 23.0607 17.0113 22.9254 17.2891C22.7901 17.567 22.5611 17.7881 22.2788 17.9137ZM21.9319 16.6715L19.1635 5.76088C19.1533 5.72453 19.1329 5.6919 19.1046 5.66694C19.0763 5.64198 19.0414 5.62576 19.0041 5.62025L15.6235 5.06244C15.5749 5.05376 15.5249 5.06332 15.4831 5.08928C15.4412 5.11524 15.4104 5.15576 15.3966 5.20307L15.0816 6.44432C15.6106 6.53518 16.1348 6.65283 16.6519 6.79682C16.7855 6.83115 16.9019 6.91341 16.9789 7.02796C17.0558 7.14252 17.088 7.28136 17.0692 7.41807C17.0505 7.55479 16.9821 7.67984 16.8772 7.76944C16.7722 7.85904 16.638 7.90693 16.5 7.904C16.4486 7.90414 16.3975 7.89688 16.3481 7.88244C14.931 7.49789 13.4684 7.30616 12 7.31244C10.5316 7.30616 9.06906 7.49789 7.65189 7.88244C7.58013 7.90463 7.50464 7.91221 7.4299 7.90476C7.35516 7.8973 7.28266 7.87495 7.2167 7.83902C7.15073 7.80309 7.09263 7.75431 7.04582 7.69556C6.99901 7.63682 6.96444 7.56929 6.94416 7.49696C6.92387 7.42464 6.91827 7.34899 6.9277 7.27446C6.93712 7.19994 6.96137 7.12806 6.99903 7.06307C7.03668 6.99807 7.08697 6.94127 7.14693 6.89603C7.20689 6.85078 7.27531 6.818 7.34814 6.79963C7.86528 6.65565 8.38939 6.53799 8.91845 6.44713L8.60345 5.20588C8.59041 5.15794 8.55988 5.11662 8.51789 5.09008C8.47589 5.06353 8.42548 5.05367 8.37658 5.06244L4.99595 5.62494C4.95863 5.63045 4.92371 5.64667 4.89542 5.67163C4.86713 5.69659 4.84669 5.72922 4.83658 5.76557L2.06814 16.6715C2.05844 16.7142 2.06401 16.759 2.08387 16.798C2.10374 16.8371 2.13665 16.8679 2.17689 16.8853L8.45814 19.6696C8.48415 19.681 8.51224 19.6869 8.54064 19.6869C8.56904 19.6869 8.59713 19.681 8.62314 19.6696C8.64746 19.6596 8.66948 19.6446 8.68786 19.6258C8.70623 19.6069 8.72057 19.5845 8.73002 19.5599L9.44064 17.6334C8.73395 17.535 8.03459 17.3897 7.3472 17.1984C7.27437 17.18 7.20596 17.1472 7.146 17.102C7.08604 17.0567 7.03574 16.9999 6.99809 16.9349C6.96044 16.8699 6.93618 16.7981 6.92676 16.7235C6.91733 16.649 6.92293 16.5734 6.94322 16.501C6.96351 16.4287 6.99808 16.3612 7.04488 16.3024C7.09169 16.2437 7.14979 16.1949 7.21576 16.159C7.28173 16.1231 7.35422 16.1007 7.42896 16.0932C7.50371 16.0858 7.57919 16.0934 7.65095 16.1156C9.06834 16.5008 10.5312 16.6932 12 16.6874C13.4684 16.6937 14.931 16.502 16.3481 16.1174C16.4199 16.0953 16.4954 16.0877 16.5701 16.0951C16.6449 16.1026 16.7174 16.1249 16.7833 16.1609C16.8493 16.1968 16.9074 16.2456 16.9542 16.3043C17.001 16.3631 17.0356 16.4306 17.0559 16.5029C17.0762 16.5752 17.0818 16.6509 17.0723 16.7254C17.0629 16.7999 17.0387 16.8718 17.001 16.9368C16.9633 17.0018 16.9131 17.0586 16.8531 17.1039C16.7931 17.1491 16.7247 17.1819 16.6519 17.2003C15.9645 17.3916 15.2651 17.5369 14.5585 17.6353L15.2691 19.5618C15.2785 19.5864 15.2929 19.6088 15.3112 19.6276C15.3296 19.6465 15.3516 19.6614 15.376 19.6715C15.402 19.6829 15.4301 19.6888 15.4585 19.6888C15.4869 19.6888 15.5149 19.6829 15.541 19.6715L21.8222 16.8871C21.863 16.8699 21.8964 16.8388 21.9165 16.7994C21.9365 16.7599 21.942 16.7146 21.9319 16.6715Z" fill="#6B6C6D"/>
</svg>
