<svg width="24" height="24" viewBox="0 0 24 24" fill="none" xmlns="http://www.w3.org/2000/svg">
<path d="M12 2.4375C10.1087 2.4375 8.25991 2.99833 6.68736 4.04907C5.11482 5.09981 3.88917 6.59327 3.16541 8.34059C2.44164 10.0879 2.25227 12.0106 2.62125 13.8656C2.99022 15.7205 3.90096 17.4244 5.2383 18.7617C6.57564 20.099 8.27951 21.0098 10.1345 21.3788C11.9894 21.7477 13.9121 21.5584 15.6594 20.8346C17.4067 20.1108 18.9002 18.8852 19.9509 17.3126C21.0017 15.7401 21.5625 13.8913 21.5625 12C21.5595 9.46478 20.5511 7.03425 18.7584 5.24158C16.9658 3.44891 14.5352 2.44048 12 2.4375ZM12.5625 20.4188V14.0625H15C15.1492 14.0625 15.2923 14.0032 15.3978 13.8977C15.5032 13.7923 15.5625 13.6492 15.5625 13.5C15.5625 13.3508 15.5032 13.2077 15.3978 13.1023C15.2923 12.9968 15.1492 12.9375 15 12.9375H12.5625V10.5C12.5625 10.0524 12.7403 9.62323 13.0568 9.30676C13.3732 8.99029 13.8025 8.8125 14.25 8.8125H15.75C15.8992 8.8125 16.0423 8.75324 16.1478 8.64775C16.2532 8.54226 16.3125 8.39918 16.3125 8.25C16.3125 8.10082 16.2532 7.95774 16.1478 7.85225C16.0423 7.74676 15.8992 7.6875 15.75 7.6875H14.25C13.5041 7.6875 12.7887 7.98382 12.2613 8.51126C11.7338 9.03871 11.4375 9.75408 11.4375 10.5V12.9375H9C8.85082 12.9375 8.70775 12.9968 8.60226 13.1023C8.49677 13.2077 8.4375 13.3508 8.4375 13.5C8.4375 13.6492 8.49677 13.7923 8.60226 13.8977C8.70775 14.0032 8.85082 14.0625 9 14.0625H11.4375V20.4188C9.25334 20.2728 7.21138 19.2837 5.74285 17.6604C4.27432 16.037 3.49419 13.9064 3.5672 11.7186C3.64021 9.53079 4.56064 7.45698 6.13413 5.93513C7.70761 4.41328 9.81097 3.56252 12 3.56252C14.189 3.56252 16.2924 4.41328 17.8659 5.93513C19.4394 7.45698 20.3598 9.53079 20.4328 11.7186C20.5058 13.9064 19.7257 16.037 18.2572 17.6604C16.7886 19.2837 14.7467 20.2728 12.5625 20.4188Z" fill="#6B6C6D"/>
</svg>
