<svg width="24" height="24" viewBox="0 0 24 24" fill="none" xmlns="http://www.w3.org/2000/svg">
<path d="M19.3247 7.11751C19.5614 6.39305 19.6426 5.6268 19.5629 4.86883C19.4833 4.11085 19.2446 3.37821 18.8625 2.71876C18.8131 2.6332 18.742 2.56216 18.6565 2.51278C18.5709 2.46341 18.4738 2.43745 18.375 2.43751C17.5146 2.4356 16.6662 2.6387 15.8999 3.02998C15.1337 3.42125 14.4717 3.98945 13.9688 4.68751H11.5312C11.0283 3.98945 10.3663 3.42125 9.60006 3.02998C8.83381 2.6387 7.98537 2.4356 7.125 2.43751C7.0262 2.43745 6.92913 2.46341 6.84355 2.51278C6.75797 2.56216 6.6869 2.6332 6.6375 2.71876C6.2554 3.37821 6.01673 4.11085 5.93709 4.86883C5.85745 5.6268 5.93862 6.39305 6.17531 7.11751C5.7007 7.91424 5.4461 8.82268 5.4375 9.75001V10.5C5.43915 11.7845 5.92842 13.0204 6.80642 13.9579C7.68441 14.8954 8.88561 15.4646 10.1672 15.5503C9.53792 16.2106 9.18708 17.0879 9.1875 18V18.9375H6.75C6.10353 18.9375 5.48355 18.6807 5.02643 18.2236C4.56931 17.7665 4.3125 17.1465 4.3125 16.5C4.3125 15.5552 3.93717 14.649 3.26907 13.9809C2.60097 13.3128 1.69483 12.9375 0.75 12.9375C0.600816 12.9375 0.457742 12.9968 0.352252 13.1023C0.246763 13.2078 0.1875 13.3508 0.1875 13.5C0.1875 13.6492 0.246763 13.7923 0.352252 13.8978C0.457742 14.0033 0.600816 14.0625 0.75 14.0625C1.39647 14.0625 2.01645 14.3193 2.47357 14.7764C2.93069 15.2336 3.1875 15.8535 3.1875 16.5C3.1875 17.4448 3.56283 18.351 4.23093 19.0191C4.89903 19.6872 5.80517 20.0625 6.75 20.0625H9.1875V21.75C9.1875 21.8992 9.24676 22.0423 9.35225 22.1478C9.45774 22.2533 9.60082 22.3125 9.75 22.3125C9.89918 22.3125 10.0423 22.2533 10.1477 22.1478C10.2532 22.0423 10.3125 21.8992 10.3125 21.75V18C10.3125 17.3535 10.5693 16.7336 11.0264 16.2764C11.4835 15.8193 12.1035 15.5625 12.75 15.5625C13.3965 15.5625 14.0165 15.8193 14.4736 16.2764C14.9307 16.7336 15.1875 17.3535 15.1875 18V21.75C15.1875 21.8992 15.2468 22.0423 15.3523 22.1478C15.4577 22.2533 15.6008 22.3125 15.75 22.3125C15.8992 22.3125 16.0423 22.2533 16.1477 22.1478C16.2532 22.0423 16.3125 21.8992 16.3125 21.75V18C16.3129 17.0879 15.9621 16.2106 15.3328 15.5503C16.6144 15.4646 17.8156 14.8954 18.6936 13.9579C19.5716 13.0204 20.0609 11.7845 20.0625 10.5V9.75001C20.0539 8.82268 19.7993 7.91424 19.3247 7.11751ZM18.9375 10.5C18.9375 11.5443 18.5227 12.5458 17.7842 13.2842C17.0458 14.0227 16.0443 14.4375 15 14.4375H10.5C9.45571 14.4375 8.45419 14.0227 7.71577 13.2842C6.97734 12.5458 6.5625 11.5443 6.5625 10.5V9.75001C6.57232 8.95929 6.80994 8.18818 7.24688 7.52908C7.30428 7.45289 7.34137 7.36336 7.35466 7.26889C7.36794 7.17443 7.35698 7.07814 7.32281 6.98908C7.11055 6.44102 7.01293 5.85526 7.03599 5.26799C7.05905 4.68073 7.20229 4.10442 7.45688 3.5747C8.12328 3.62497 8.76879 3.82994 9.34212 4.17333C9.91546 4.51671 10.4008 4.98905 10.7597 5.55283C10.8106 5.63248 10.8807 5.69803 10.9636 5.74342C11.0465 5.78881 11.1395 5.81257 11.2341 5.81251H14.2659C14.3604 5.81267 14.4533 5.78905 14.5362 5.74383C14.6191 5.69861 14.6893 5.63325 14.7403 5.55376C15.099 4.98971 15.5843 4.51711 16.1576 4.17355C16.731 3.82999 17.3766 3.62494 18.0431 3.5747C18.2977 4.10442 18.441 4.68073 18.464 5.26799C18.4871 5.85526 18.3895 6.44102 18.1772 6.98908C18.1431 7.07773 18.132 7.17357 18.145 7.26767C18.1579 7.36177 18.1945 7.45105 18.2512 7.5272C18.6896 8.18645 18.9279 8.9584 18.9375 9.75001V10.5Z" fill="#6B6C6D"/>
</svg>
