<svg width="107" height="32" viewBox="0 0 107 32" fill="none" xmlns="http://www.w3.org/2000/svg">
  <g id="Logo">
    <path id="Vector"
      d="M21.0378 10.7623C18.1678 13.0583 17.7373 17.2914 20.0333 20.1614C22.3292 23.0314 26.5624 23.4618 29.4324 21.1659C32.3023 18.8699 32.7328 14.6367 30.4369 11.7668C28.1409 8.89682 23.9077 8.46633 21.0378 10.7623Z"
      fill="#FFFFFF" />
    <path id="Vector_2"
      d="M15.011 26.1882C13.576 27.3362 13.4325 29.4169 14.5805 30.7801C15.7285 32.2151 17.8092 32.3586 19.1724 31.2106C20.6074 30.0626 20.7509 27.9819 19.6029 26.6187C18.5267 25.1837 16.446 25.0402 15.011 26.1882Z"
      fill="#FFFFFF" />
    <path id="Vector_3"
      d="M19.1724 5.81167C20.6074 4.66369 20.7509 2.58297 19.6029 1.21974C18.4549 -0.215238 16.3742 -0.358734 15.011 0.789248C13.576 1.93723 13.4325 4.01795 14.5805 5.38118C15.7285 6.74441 17.8092 6.95965 19.1724 5.81167Z"
      fill="#FFFFFF" />
    <path id="Vector_4"
      d="M3.24428 13.1299C4.89451 13.7757 6.75998 13.4169 8.05146 12.3407C9.19944 11.4797 10.7779 11.1927 12.2129 11.7667C13.1456 12.1255 13.9349 12.7712 14.4371 13.4887L14.5089 13.6322C14.7241 13.9909 15.0828 14.2779 15.5133 14.4214C16.5178 14.7802 17.6658 14.2779 18.0963 13.2734C18.455 12.269 17.9528 11.121 16.9483 10.6905C16.5178 10.547 16.0156 10.547 15.5851 10.6905C14.6524 10.9775 13.6479 10.9775 12.7151 10.6187C11.3519 10.1165 10.3474 8.9685 9.91693 7.67702L9.84518 7.53353C9.84518 7.46178 9.84518 7.46177 9.77343 7.39003V7.31828C9.41468 5.7398 8.2667 4.37657 6.68823 3.80258C4.10527 2.86985 1.30707 4.16132 0.302581 6.74428C-0.630154 9.32724 0.661326 12.1972 3.24428 13.1299Z"
      fill="#FFFFFF" />
    <path id="Vector_5"
      d="M15.5851 21.3096C15.5851 21.2379 15.5851 21.2379 15.5851 21.3096C16.0156 21.4531 16.5178 21.4531 16.9483 21.3096C17.9528 20.9509 18.5268 19.8029 18.0963 18.7267C17.7376 17.7222 16.5896 17.1482 15.5133 17.5787C15.0828 17.7222 14.7241 18.0092 14.5089 18.3679L14.4371 18.5114C13.9349 19.3007 13.1456 19.9464 12.2129 20.2334C10.7779 20.7356 9.19944 20.5204 8.05146 19.6594C6.75998 18.5832 4.96626 18.2962 3.24428 18.8702C0.661326 19.8029 -0.630154 22.6729 0.302581 25.2558C1.23532 27.8388 4.10527 29.1303 6.68823 28.1975C8.33845 27.6235 9.41468 26.2603 9.77343 24.6818V24.6101C9.77343 24.5383 9.77343 24.5383 9.84518 24.4666L9.91693 24.3231C10.3474 23.0316 11.2802 21.8836 12.7151 21.3814C13.6479 20.9509 14.6524 20.9509 15.5851 21.3096Z"
      fill="#FFFFFF" />
    <path id="Vector_6" d="M87.5489 0H82.1677V31.9282H87.5489V0Z" fill="#FFFFFF" />
    <path id="Vector_7"
      d="M103.693 17.0045V11.6233H97.4507V8.46636C97.4507 6.74439 98.8139 5.38116 100.536 5.30941H103.621V0.573988V0H100.464C95.8005 0 91.9978 3.80269 91.9978 8.46636V11.6233H88.9126V17.0045H91.9978V32H97.379V17.0045H103.693Z"
      fill="#FFFFFF" />
    <path id="Vector_8" d="M106.634 26.6187H101.253V31.9998H106.634V26.6187Z" fill="#FFFFFF" />
    <path id="Vector_9"
      d="M69.1097 8.75342C66.2397 8.75342 63.585 9.82965 61.576 11.5516V8.75342H57.5581V11.6234C55.5491 9.9014 52.8944 8.82517 50.0245 8.82517C43.6388 8.82517 38.4729 13.9911 38.4729 20.3767C38.4729 26.7624 43.6388 31.9283 50.0245 31.9283C52.8944 31.9283 55.5491 30.8521 57.5581 29.1301V31.9283H61.576V29.1301C63.585 30.8521 66.2397 31.9283 69.1097 31.9283C72.3384 31.9283 75.2083 30.6368 77.289 28.5561L74.2756 25.5427C73.0558 26.5471 71.5491 27.1929 69.8271 27.1929C66.7419 27.1929 64.159 25.1839 63.298 22.4575H76.428H79.9437H80.5895C80.733 21.8117 80.733 21.166 80.733 20.4485C80.733 13.9911 75.5671 8.75342 69.1097 8.75342ZM50.6702 27.2646C46.8675 27.2646 43.7823 24.1794 43.7823 20.3767C43.7823 16.574 46.8675 13.4888 50.6702 13.4888C54.4729 13.4888 57.5581 16.574 57.5581 20.3767C57.5581 24.1794 54.4729 27.2646 50.6702 27.2646ZM63.2263 18.3678C64.0155 15.4978 66.6702 13.3453 69.8271 13.3453C72.9841 13.3453 75.6388 15.4978 76.428 18.3678H63.2263Z"
      fill="#FFFFFF" />
  </g>
</svg>