<svg width="24" height="24" viewBox="0 0 24 24" fill="none" xmlns="http://www.w3.org/2000/svg">
<path d="M6.75 6.1875C5.6004 6.1875 4.47661 6.5284 3.52075 7.16708C2.56489 7.80577 1.81989 8.71356 1.37995 9.77565C0.940018 10.8377 0.824912 12.0064 1.04919 13.134C1.27346 14.2615 1.82705 15.2972 2.63994 16.1101C3.45284 16.923 4.48853 17.4765 5.61604 17.7008C6.74356 17.9251 7.91226 17.81 8.97435 17.37C10.0364 16.9301 10.9442 16.1851 11.5829 15.2293C12.2216 14.2734 12.5625 13.1496 12.5625 12C12.5608 10.459 11.9478 8.98154 10.8581 7.89186C9.76846 6.80218 8.29104 6.18924 6.75 6.1875ZM6.75 16.6875C5.8229 16.6875 4.91662 16.4126 4.14577 15.8975C3.37491 15.3824 2.7741 14.6504 2.41932 13.7938C2.06453 12.9373 1.9717 11.9948 2.15257 11.0855C2.33344 10.1762 2.77988 9.341 3.43544 8.68544C4.091 8.02988 4.92623 7.58344 5.83552 7.40257C6.7448 7.2217 7.6873 7.31453 8.54383 7.66931C9.40036 8.0241 10.1324 8.62491 10.6475 9.39576C11.1626 10.1666 11.4375 11.0729 11.4375 12C11.436 13.2427 10.9417 14.4342 10.0629 15.3129C9.18417 16.1917 7.99275 16.686 6.75 16.6875ZM17.25 6.1875C15.6469 6.1875 14.4375 8.68594 14.4375 12C14.4375 15.3141 15.6469 17.8125 17.25 17.8125C18.8531 17.8125 20.0625 15.3141 20.0625 12C20.0625 8.68594 18.8531 6.1875 17.25 6.1875ZM17.25 16.6875C16.5619 16.6875 15.5625 14.8613 15.5625 12C15.5625 9.13875 16.5619 7.3125 17.25 7.3125C17.9381 7.3125 18.9375 9.13875 18.9375 12C18.9375 14.8613 17.9381 16.6875 17.25 16.6875ZM23.0625 6.75V17.25C23.0625 17.3992 23.0032 17.5423 22.8978 17.6477C22.7923 17.7532 22.6492 17.8125 22.5 17.8125C22.3508 17.8125 22.2077 17.7532 22.1023 17.6477C21.9968 17.5423 21.9375 17.3992 21.9375 17.25V6.75C21.9375 6.60082 21.9968 6.45774 22.1023 6.35225C22.2077 6.24676 22.3508 6.1875 22.5 6.1875C22.6492 6.1875 22.7923 6.24676 22.8978 6.35225C23.0032 6.45774 23.0625 6.60082 23.0625 6.75Z" fill="#6B6C6D"/>
</svg>
