<svg width="24" height="24" viewBox="0 0 24 24" fill="none" xmlns="http://www.w3.org/2000/svg">
<path d="M23.0625 9.75005C23.0623 9.20027 22.901 8.6626 22.5985 8.20353C22.296 7.74446 21.8655 7.38413 21.3604 7.16707C20.8553 6.95002 20.2976 6.88578 19.7564 6.98228C19.2151 7.07878 18.714 7.3318 18.315 7.71005C16.6875 6.82036 14.7188 6.29724 12.661 6.20443L13.2132 2.89036L15.1969 3.19599C15.244 3.69155 15.4687 4.15336 15.8296 4.49623C16.1904 4.83909 16.6632 5.03987 17.1605 5.06153C17.6578 5.08318 18.1461 4.92424 18.5355 4.61404C18.9248 4.30383 19.1888 3.8633 19.2787 3.37371C19.3687 2.88412 19.2785 2.37851 19.0249 1.95017C18.7713 1.52184 18.3713 1.19968 17.8988 1.04313C17.4263 0.886578 16.9131 0.906206 16.4539 1.09839C15.9947 1.29057 15.6205 1.64235 15.4004 2.0888L12.8354 1.69411C12.6893 1.67161 12.5403 1.70747 12.4205 1.79396C12.3006 1.88044 12.2197 2.0106 12.195 2.1563L11.5219 6.19599C9.39942 6.26536 7.35848 6.79411 5.68504 7.71005C5.41311 7.44666 5.0908 7.24087 4.73742 7.10503C4.38405 6.96919 4.00689 6.90609 3.62854 6.91952C3.25019 6.93294 2.87845 7.02261 2.53559 7.18316C2.19274 7.3437 1.88582 7.57181 1.63324 7.85382C1.38066 8.13583 1.18761 8.46593 1.06567 8.82433C0.943722 9.18274 0.895393 9.56208 0.923575 9.93961C0.951757 10.3171 1.05587 10.6851 1.22967 11.0214C1.40348 11.3578 1.64339 11.6555 1.93504 11.8969C1.77155 12.4156 1.68809 12.9562 1.68754 13.5001C1.68754 15.4932 2.78817 17.3522 4.78598 18.7351C6.72004 20.0747 9.28129 20.8126 12 20.8126C14.7188 20.8126 17.28 20.0747 19.2141 18.7351C21.2119 17.3522 22.3125 15.4932 22.3125 13.5001C22.3123 12.9563 22.2292 12.4157 22.066 11.8969C22.3774 11.6323 22.6277 11.3034 22.7997 10.9328C22.9718 10.5622 23.0614 10.1587 23.0625 9.75005ZM17.25 2.06255C17.4355 2.06255 17.6167 2.11754 17.7709 2.22055C17.9251 2.32356 18.0452 2.46998 18.1162 2.64129C18.1871 2.81259 18.2057 3.00109 18.1695 3.18295C18.1334 3.36481 18.0441 3.53185 17.913 3.66296C17.7818 3.79408 17.6148 3.88336 17.4329 3.91954C17.2511 3.95571 17.0626 3.93715 16.8913 3.86619C16.72 3.79523 16.5736 3.67507 16.4705 3.5209C16.3675 3.36673 16.3125 3.18547 16.3125 3.00005C16.3125 2.75141 16.4113 2.51295 16.5871 2.33714C16.7629 2.16132 17.0014 2.06255 17.25 2.06255ZM21.1079 11.2041C20.9907 11.2736 20.9027 11.3833 20.8603 11.5128C20.8178 11.6423 20.8239 11.7828 20.8772 11.9082C21.0812 12.4142 21.1865 12.9545 21.1875 13.5001C21.1875 16.9116 17.0625 19.6876 12 19.6876C6.93754 19.6876 2.81254 16.9116 2.81254 13.5001C2.81371 12.9558 2.91871 12.4168 3.12192 11.9119C3.17641 11.7862 3.18314 11.6449 3.14085 11.5146C3.09856 11.3843 3.01015 11.2739 2.89223 11.2041C2.67672 11.0765 2.49231 10.9026 2.35238 10.6948C2.21245 10.4871 2.12051 10.2509 2.08324 10.0032C2.04596 9.75553 2.06428 9.50268 2.13686 9.26297C2.20944 9.02327 2.33447 8.80273 2.50288 8.61734C2.67128 8.43196 2.87884 8.28639 3.1105 8.19119C3.34215 8.09599 3.59209 8.05355 3.84218 8.06694C4.09228 8.08034 4.33626 8.14923 4.55642 8.26863C4.77658 8.38803 4.9674 8.55493 5.11504 8.75724C5.19613 8.86864 5.31528 8.94641 5.4499 8.97578C5.58451 9.00516 5.72523 8.98411 5.84536 8.91661C5.8563 8.91092 5.86694 8.90466 5.87723 8.89787C7.56567 7.87505 9.73973 7.31255 12 7.31255C14.2594 7.31255 16.4325 7.87505 18.121 8.89693L18.136 8.90724C18.2569 8.98139 18.4013 9.00714 18.5404 8.97933C18.6795 8.95151 18.8029 8.87219 18.886 8.75724C19.0336 8.55493 19.2244 8.38803 19.4446 8.26863C19.6648 8.14923 19.9087 8.08034 20.1588 8.06694C20.4089 8.05355 20.6589 8.09599 20.8905 8.19119C21.1222 8.28639 21.3297 8.43196 21.4981 8.61734C21.6666 8.80273 21.7916 9.02327 21.8642 9.26297C21.9367 9.50268 21.9551 9.75553 21.9178 10.0032C21.8805 10.2509 21.7886 10.4871 21.6486 10.6948C21.5087 10.9026 21.3243 11.0765 21.1088 11.2041H21.1079ZM15.4969 16.2366C15.5668 16.3684 15.5814 16.5225 15.5376 16.6651C15.4938 16.8077 15.3952 16.927 15.2635 16.9969C14.2585 17.5306 13.1379 17.8097 12 17.8097C10.8621 17.8097 9.7416 17.5306 8.73661 16.9969C8.60787 16.9254 8.51233 16.8062 8.47049 16.665C8.42865 16.5238 8.44385 16.3719 8.51284 16.2417C8.58182 16.1116 8.69908 16.0138 8.83944 15.9692C8.97979 15.9245 9.13204 15.9368 9.26348 16.0032C10.1061 16.451 11.0458 16.6852 12 16.6852C12.9543 16.6852 13.894 16.451 14.7366 16.0032C14.8684 15.9333 15.0225 15.9187 15.1651 15.9625C15.3077 16.0063 15.427 16.1049 15.4969 16.2366ZM8.25004 13.3126C7.99046 13.3126 7.7367 13.2356 7.52086 13.0914C7.30502 12.9471 7.13679 12.7422 7.03745 12.5023C6.93811 12.2625 6.91212 11.9986 6.96276 11.744C7.01341 11.4894 7.13841 11.2555 7.32197 11.072C7.50552 10.8884 7.73939 10.7634 7.99399 10.7128C8.24859 10.6621 8.51249 10.6881 8.75232 10.7875C8.99214 10.8868 9.19713 11.055 9.34135 11.2709C9.48557 11.4867 9.56254 11.7405 9.56254 12.0001C9.56254 12.3481 9.42426 12.682 9.17812 12.9281C8.93198 13.1743 8.59814 13.3126 8.25004 13.3126ZM17.0625 12.0001C17.0625 12.2596 16.9856 12.5134 16.8413 12.7292C16.6971 12.9451 16.4921 13.1133 16.2523 13.2126C16.0125 13.312 15.7486 13.338 15.494 13.2873C15.2394 13.2367 15.0055 13.1117 14.822 12.9281C14.6384 12.7446 14.5134 12.5107 14.4628 12.2561C14.4121 12.0015 14.4381 11.7376 14.5375 11.4978C14.6368 11.258 14.805 11.053 15.0209 10.9087C15.2367 10.7645 15.4905 10.6876 15.75 10.6876C16.0981 10.6876 16.432 10.8258 16.6781 11.072C16.9243 11.3181 17.0625 11.652 17.0625 12.0001Z" fill="#6B6C6D"/>
</svg>
