<svg width="24" height="24" viewBox="0 0 24 24" fill="none" xmlns="http://www.w3.org/2000/svg">
<path d="M21.3347 2.59688C21.2443 2.51876 21.1342 2.46681 21.0164 2.44666C20.8986 2.4265 20.7775 2.4389 20.6663 2.4825L1.66688 9.91782C1.43579 10.0082 1.24027 10.1712 1.10969 10.3822C0.97911 10.5932 0.920514 10.8409 0.942705 11.0881C0.964895 11.3352 1.06667 11.5685 1.23275 11.7529C1.39884 11.9373 1.62025 12.0628 1.86376 12.1106L6.93751 13.1072V18.75C6.93761 19.0116 7.01589 19.2672 7.16229 19.484C7.30869 19.7008 7.51654 19.8689 7.75916 19.9667C8.00178 20.0646 8.2681 20.0877 8.52394 20.0331C8.77978 19.9785 9.01346 19.8487 9.19501 19.6603L11.6925 17.07L15.5906 20.4872C15.8286 20.6978 16.1354 20.8141 16.4531 20.8144C16.5919 20.8141 16.7298 20.7922 16.8619 20.7497C17.0784 20.6812 17.2732 20.5571 17.4269 20.3898C17.5805 20.2225 17.6876 20.0178 17.7375 19.7963L21.5456 3.24094C21.5724 3.12455 21.5669 3.00307 21.5297 2.88957C21.4926 2.77608 21.4251 2.67488 21.3347 2.59688ZM2.0672 11.0034C2.0636 10.9938 2.0636 10.9831 2.0672 10.9734C2.07143 10.9702 2.07618 10.9676 2.08126 10.9659L17.0541 5.10469L7.3697 12.0422L2.08126 11.0072L2.0672 11.0034ZM8.38501 18.8784C8.35917 18.9053 8.32593 18.9238 8.28953 18.9316C8.25313 18.9395 8.21522 18.9363 8.18063 18.9225C8.14603 18.9087 8.11633 18.885 8.09529 18.8543C8.07425 18.8235 8.06284 18.7872 8.06251 18.75V13.8853L10.8459 16.3228L8.38501 18.8784ZM16.6416 19.5422C16.6347 19.5739 16.6193 19.6031 16.5972 19.6269C16.5751 19.6506 16.5471 19.668 16.5159 19.6772C16.4842 19.6883 16.45 19.6907 16.4171 19.6841C16.3841 19.6775 16.3535 19.6622 16.3284 19.6397L8.40376 12.6881L20.1563 4.26563L16.6416 19.5422Z" fill="#6B6C6D"/>
</svg>
