<svg width="24" height="24" viewBox="0 0 24 24" fill="none" xmlns="http://www.w3.org/2000/svg">
<path d="M13.3125 13.1249C13.3125 13.3104 13.2575 13.4916 13.1545 13.6458C13.0515 13.8 12.9051 13.9201 12.7338 13.9911C12.5625 14.062 12.374 14.0806 12.1921 14.0444C12.0102 14.0083 11.8432 13.919 11.7121 13.7879C11.581 13.6567 11.4917 13.4897 11.4555 13.3078C11.4193 13.126 11.4379 12.9375 11.5089 12.7662C11.5798 12.5949 11.7 12.4485 11.8541 12.3454C12.0083 12.2424 12.1896 12.1874 12.375 12.1874C12.6236 12.1874 12.8621 12.2862 13.0379 12.462C13.2137 12.6378 13.3125 12.8763 13.3125 13.1249ZM17.625 12.1874C17.4396 12.1874 17.2583 12.2424 17.1041 12.3454C16.95 12.4485 16.8298 12.5949 16.7589 12.7662C16.6879 12.9375 16.6693 13.126 16.7055 13.3078C16.7417 13.4897 16.831 13.6567 16.9621 13.7879C17.0932 13.919 17.2602 14.0083 17.4421 14.0444C17.624 14.0806 17.8125 14.062 17.9838 13.9911C18.1551 13.9201 18.3015 13.8 18.4045 13.6458C18.5075 13.4916 18.5625 13.3104 18.5625 13.1249C18.5625 12.8763 18.4637 12.6378 18.2879 12.462C18.1121 12.2862 17.8736 12.1874 17.625 12.1874ZM22.2581 19.8749C22.3258 20.1018 22.331 20.3426 22.2729 20.5721C22.2149 20.8016 22.0959 21.0111 21.9285 21.1785C21.7612 21.3459 21.5517 21.4649 21.3222 21.5229C21.0927 21.5809 20.8518 21.5758 20.625 21.5081L18.2381 20.8059C17.3387 21.2499 16.3575 21.5042 15.3556 21.5529C14.3537 21.6015 13.3525 21.4436 12.4143 21.0888C11.4761 20.7339 10.6209 20.1899 9.90191 19.4905C9.18292 18.791 8.61552 17.9512 8.23499 17.0231C7.37301 16.9346 6.53401 16.6917 5.75812 16.3059L3.37499 17.0081C3.14818 17.0758 2.90729 17.0809 2.67781 17.0229C2.44833 16.9649 2.23881 16.8459 2.07143 16.6785C1.90406 16.5111 1.78507 16.3016 1.72705 16.0721C1.66903 15.8426 1.67415 15.6018 1.74187 15.3749L2.44405 12.9881C2.01063 12.1079 1.75875 11.1495 1.70342 10.17C1.64808 9.19043 1.79043 8.20978 2.12198 7.2864C2.45353 6.36302 2.96751 5.51579 3.6333 4.79518C4.29909 4.07457 5.10308 3.49531 5.9974 3.09188C6.89172 2.68846 7.85808 2.46912 8.83893 2.44694C9.81977 2.42475 10.7951 2.60017 11.7067 2.96275C12.6183 3.32533 13.4477 3.86765 14.1454 4.55742C14.8431 5.24719 15.3948 6.07031 15.7678 6.97776C16.9401 7.10132 18.0652 7.50646 19.0471 8.15865C20.029 8.81085 20.8388 9.69076 21.4072 10.7234C21.9757 11.7561 22.2862 12.9109 22.312 14.0894C22.3379 15.2679 22.0785 16.4352 21.5559 17.4918L22.2581 19.8749ZM7.86187 15.8315C7.63293 14.8026 7.62935 13.7364 7.85139 12.706C8.07342 11.6756 8.51581 10.7055 9.14817 9.86223C9.78054 9.01896 10.5879 8.32253 11.5148 7.82074C12.4418 7.31895 13.4663 7.0237 14.5181 6.95526C14.143 6.23442 13.6296 5.59453 13.0071 5.07213C12.3847 4.54972 11.6655 4.15502 10.8905 3.91057C10.1155 3.66612 9.30003 3.5767 8.49051 3.64743C7.68099 3.71815 6.89332 3.94763 6.17249 4.32276C5.45166 4.69789 4.81177 5.21132 4.28936 5.83375C3.76695 6.45617 3.37226 7.1754 3.12781 7.95036C2.88336 8.72532 2.79394 9.54085 2.86466 10.3504C2.93539 11.1599 3.16486 11.9475 3.53999 12.6684C3.60943 12.7988 3.62524 12.9512 3.58405 13.0931L2.81812 15.6956C2.80849 15.7279 2.80776 15.7622 2.816 15.7949C2.82425 15.8276 2.84116 15.8575 2.86497 15.8814C2.88877 15.9053 2.91858 15.9223 2.95125 15.9307C2.98392 15.9391 3.01825 15.9385 3.05062 15.929L5.65405 15.1631C5.79596 15.122 5.94829 15.1378 6.07874 15.2071C6.63717 15.5064 7.23872 15.7171 7.86187 15.8315ZM20.4572 17.1684C21.1569 15.8599 21.363 14.3436 21.0381 12.8958C20.7132 11.448 19.8788 10.1652 18.6871 9.28118C17.4953 8.39718 16.0256 7.97087 14.5458 8.07997C13.0661 8.18906 11.6747 8.82629 10.6255 9.8755C9.57634 10.9247 8.93911 12.316 8.83001 13.7958C8.72092 15.2756 9.14723 16.7453 10.0312 17.937C10.9152 19.1287 12.198 19.9631 13.6458 20.288C15.0936 20.613 16.6099 20.4068 17.9184 19.7071C18.0489 19.6378 18.2012 19.622 18.3431 19.6631L20.9466 20.429C20.9788 20.4384 21.013 20.439 21.0456 20.4306C21.0781 20.4223 21.1079 20.4054 21.1316 20.3816C21.1554 20.3578 21.1723 20.3281 21.1807 20.2955C21.189 20.263 21.1885 20.2288 21.1791 20.1965L20.4131 17.5931C20.3719 17.4512 20.3877 17.2988 20.4572 17.1684Z" fill="#6B6C6D"/>
</svg>
