<svg width="24" height="24" viewBox="0 0 24 24" fill="none" xmlns="http://www.w3.org/2000/svg">
<path d="M19.9744 19.948L14.0287 10.6049L19.9162 4.12492C19.9735 4.07179 20.019 4.00732 20.05 3.93562C20.0809 3.86392 20.0966 3.78656 20.096 3.70847C20.0955 3.63037 20.0786 3.55325 20.0466 3.48202C20.0146 3.41079 19.9681 3.347 19.9101 3.29473C19.852 3.24246 19.7838 3.20284 19.7096 3.1784C19.6354 3.15396 19.557 3.14523 19.4792 3.15278C19.4015 3.16032 19.3262 3.18397 19.2581 3.22221C19.19 3.26046 19.1306 3.31247 19.0837 3.37492L13.4062 9.62055L9.47811 3.44805C9.427 3.36768 9.35631 3.30161 9.27269 3.25602C9.18906 3.21044 9.09523 3.18683 8.99998 3.18742H4.49998C4.39922 3.18747 4.30032 3.21458 4.21362 3.26592C4.12692 3.31727 4.0556 3.39096 4.00712 3.47929C3.95865 3.56763 3.93479 3.66736 3.93804 3.76807C3.94129 3.86879 3.97153 3.96677 4.02561 4.0518L9.97123 13.3949L4.08374 19.8749C3.99938 19.9873 3.96013 20.1271 3.9737 20.267C3.98727 20.4068 4.05268 20.5365 4.15707 20.6306C4.26145 20.7246 4.39725 20.7762 4.53775 20.7751C4.67824 20.7741 4.81326 20.7205 4.91623 20.6249L10.5937 14.3793L14.5219 20.5518C14.573 20.6322 14.6437 20.6982 14.7273 20.7438C14.8109 20.7894 14.9047 20.813 15 20.8124H19.5C19.6007 20.8124 19.6996 20.7853 19.7863 20.7339C19.873 20.6826 19.9444 20.6089 19.9928 20.5205C20.0413 20.4322 20.0652 20.3325 20.0619 20.2318C20.0587 20.1311 20.0284 20.0331 19.9744 19.948ZM15.3084 19.6874L5.52467 4.31242H8.69155L18.4753 19.6874H15.3084Z" fill="#6B6C6D"/>
</svg>
