<svg width="24" height="24" viewBox="0 0 24 24" fill="none" xmlns="http://www.w3.org/2000/svg">
<path d="M15.3122 11.5313L10.8122 8.53127C10.7274 8.47471 10.6289 8.44225 10.5271 8.43734C10.4253 8.43243 10.3241 8.45526 10.2343 8.50339C10.1445 8.55152 10.0694 8.62315 10.0172 8.71062C9.96488 8.79809 9.93735 8.89812 9.9375 9.00002V15C9.93735 15.1019 9.96488 15.2019 10.0172 15.2894C10.0694 15.3769 10.1445 15.4485 10.2343 15.4966C10.3241 15.5448 10.4253 15.5676 10.5271 15.5627C10.6289 15.5578 10.7274 15.5253 10.8122 15.4688L15.3122 12.4688C15.3895 12.4175 15.453 12.3478 15.4969 12.266C15.5408 12.1842 15.5638 12.0928 15.5638 12C15.5638 11.9072 15.5408 11.8158 15.4969 11.734C15.453 11.6522 15.3895 11.5826 15.3122 11.5313ZM11.0625 13.9491V10.051L13.9856 12L11.0625 13.9491ZM21.7875 6.56252C21.7061 6.2463 21.5508 5.95393 21.3344 5.70945C21.1179 5.46498 20.8465 5.27538 20.5425 5.15627C17.3437 3.91783 12.2128 3.93752 12 3.93752C11.7872 3.93752 6.65625 3.91783 3.45375 5.15627C3.15043 5.27587 2.87978 5.46568 2.66402 5.71013C2.44825 5.95458 2.29351 6.24669 2.2125 6.56252C1.97344 7.48971 1.6875 9.18752 1.6875 12C1.6875 14.8125 1.97344 16.5103 2.2125 17.4375C2.29389 17.7537 2.4492 18.0461 2.66564 18.2906C2.88208 18.5351 3.15348 18.7247 3.4575 18.8438C6.65625 20.0822 11.7863 20.0625 12 20.0625H12.0666C12.7144 20.0625 17.5041 20.0213 20.5463 18.8438C20.8503 18.7247 21.1217 18.5351 21.3381 18.2906C21.5546 18.0461 21.7099 17.7537 21.7913 17.4375C22.0303 16.5122 22.3162 14.8191 22.3162 12C22.3162 9.18096 22.0312 7.48971 21.7875 6.56252ZM20.6981 17.1563C20.662 17.3004 20.5922 17.4338 20.4944 17.5456C20.3966 17.6575 20.2736 17.7444 20.1356 17.7994C17.1356 18.9553 12.0544 18.9375 12 18.9375C11.9456 18.9375 6.87094 18.9563 3.86719 17.7966C3.72918 17.7416 3.60621 17.6546 3.50841 17.5428C3.41062 17.431 3.34079 17.2976 3.30469 17.1535C3.07875 16.2919 2.8125 14.6981 2.8125 12C2.8125 9.30189 3.07875 7.70814 3.30188 6.84377C3.33798 6.69967 3.4078 6.56622 3.5056 6.4544C3.6034 6.34259 3.72637 6.25561 3.86438 6.20064C6.75563 5.08689 11.5809 5.06252 11.9775 5.06252H12C12.0506 5.06252 17.1291 5.04377 20.1328 6.20346C20.2708 6.25842 20.3938 6.3454 20.4916 6.45721C20.5894 6.56903 20.6592 6.70248 20.6953 6.84658C20.9184 7.70814 21.1847 9.30189 21.1847 12.0028C21.1847 14.7038 20.9212 16.2919 20.6981 17.1563Z" fill="#6B6C6D"/>
</svg>
